# xmcd
#
# Track frame offsets:
#	150
#	16952
#	33600
#	52272
#	70840
#	86090
#	101937
#	117685
#	138417
#	158620
#	175160
#	190525
#	211682
#	233197
#	251832
#	271147
#	291675
#	312005
#	331352
#
# Disc length: 4652 seconds
#
# Revision: 1
# Processed by: cddbd v1.5.1PL0 Copyright (c) Steve Scherf et al.
# Submitted via: CDex 1.50Beta5
#
DISCID=1d122a13
DTITLE=松田聖子 - Bible [CD1]
DYEAR=1900
DGENRE=Pop
TTITLE0=裸足の季節
TTITLE1=青い珊瑚礁
TTITLE2=風は秋色
TTITLE3=Only My Love
TTITLE4=チェリーブラッサム
TTITLE5=夏の扉
TTITLE6=白いパラソル
TTITLE7=風立ちぬ
TTITLE8=P・R・E・S・E・N・T
TTITLE9=赤いスイートピー
TTITLE10=星空のドライブ
TTITLE11=真冬の恋人達
TTITLE12=マイアミ午前5時
TTITLE13=セイシェルの夕陽
TTITLE14=赤い靴のバレリーナ
TTITLE15=SWEET MEMORIES
TTITLE16=Canary
TTITLE17=瞳はダイアモンド
TTITLE18=蒼いフォトグラフ
EXTD=
EXTT0=
EXTT1=
EXTT2=
EXTT3=
EXTT4=
EXTT5=
EXTT6=
EXTT7=
EXTT8=
EXTT9=
EXTT10=
EXTT11=
EXTT12=
EXTT13=
EXTT14=
EXTT15=
EXTT16=
EXTT17=
EXTT18=
PLAYORDER=
